# xmcd
#
# Track frame offsets: 
#        150
#        32242
#        89814
#        118275
#        141391
#        189963
#
# Disc length: 3560 seconds
#
# Revision: 0
# Processed by: cddbd v1.5.2PL0 Copyright (c) Steve Scherf et al.
# Submitted via: ExactAudioCopy v0.99pb5
#
DISCID=590de606
DTITLE=Blues Traveler - Chestnut Cabaret, Philadelphia, Pa. 1991-01-28
DTITLE=CD 2
DYEAR=1991
DGENRE=Blues
TTITLE0=01 Come Together
TTITLE1=02 Mother Funker
TTITLE2=03 100 Years
TTITLE3=04 Escaping
TTITLE4=05 Sweet Pain
TTITLE5=06 Alone
EXTD=
EXTT0=
EXTT1=
EXTT2=
EXTT3=
EXTT4=
EXTT5=
PLAYORDER=
